<svg width="40" height="40" viewBox="0 0 40 40" fill="none" xmlns="http://www.w3.org/2000/svg">
<path fill-rule="evenodd" clip-rule="evenodd" d="M20.0138 3.61108C10.7899 3.61108 3.33331 11.1226 3.33331 20.4155C3.33331 27.8437 8.11101 34.1316 14.7389 36.3571C15.5676 36.5244 15.8711 35.9955 15.8711 35.5506C15.8711 35.161 15.8438 33.8257 15.8438 32.4343C11.2037 33.4361 10.2375 30.4311 10.2375 30.4311C9.49177 28.4836 8.38689 27.983 8.38689 27.983C6.86819 26.9536 8.49752 26.9536 8.49752 26.9536C10.1822 27.0649 11.0661 28.6785 11.0661 28.6785C12.5572 31.2379 14.9599 30.5148 15.9265 30.0695C16.0644 28.9845 16.5066 28.2333 16.976 27.8161C13.2752 27.4265 9.38149 25.9798 9.38149 19.525C9.38149 17.6888 10.0439 16.1865 11.0934 15.0181C10.9278 14.6008 10.3478 12.8756 11.2594 10.5665C11.2594 10.5665 12.6678 10.1212 15.8435 12.2914C17.2031 11.9235 18.6053 11.7364 20.0138 11.7348C21.4222 11.7348 22.8579 11.9298 24.1837 12.2914C27.3597 10.1212 28.7682 10.5665 28.7682 10.5665C29.6798 12.8756 29.0994 14.6008 28.9338 15.0181C30.011 16.1865 30.6461 17.6888 30.6461 19.525C30.6461 25.9798 26.7523 27.3985 23.0239 27.8161C23.6316 28.3446 24.1561 29.346 24.1561 30.932C24.1561 33.1855 24.1287 34.9941 24.1287 35.5503C24.1287 35.9955 24.4326 36.5244 25.2609 36.3574C31.8889 34.1313 36.6666 27.8437 36.6666 20.4155C36.6939 11.1226 29.21 3.61108 20.0138 3.61108Z" fill="#B7B7B7"/>
</svg>
